<svg xmlns="http://www.w3.org/2000/svg" viewBox="0 0 64 64"><style>.st0{display:none}.st2{display:inline}.st3,.st4{fill:none;stroke:#4c5159;stroke-width:2;stroke-miterlimit:10}.st4,.st5{display:inline}.st5,.st6{fill:none;stroke:#4c5159;stroke-width:2;stroke-miterlimit:10;stroke-dasharray:1.9857,1.9857}.st7{fill:#4c5159}.st8{font-family:&apos;Montserrat-Bold&apos;}.st9{font-size:7px}</style><g id="bg" class="st0"><path id="XMLID_119_" display="inline" fill="#fff" d="M-218-268.2h500v600.3h-500z"/></g><g id="icons"><g id="XMLID_58_" class="st0"><g id="XMLID_55_" class="st2"><path id="XMLID_7_" class="st3" d="M16.8 23.8v2.4c0 1.4-1.1 2.5-2.5 2.5s-2.5-1.1-2.5-2.5v-2.4"/><path id="XMLID_4_" class="st3" d="M21.7 23.8v2.4c0 1.4-1.1 2.5-2.5 2.5s-2.5-1.1-2.5-2.5v-2.4"/><path id="XMLID_8_" class="st3" d="M26.6 23.8v2.4c0 1.4-1.1 2.5-2.5 2.5s-2.5-1.1-2.5-2.5v-2.4"/><path id="XMLID_9_" class="st3" d="M31.5 23.8v2.4c0 1.4-1.1 2.5-2.5 2.5s-2.5-1.1-2.5-2.5v-2.4"/><path id="XMLID_13_" class="st3" d="M36.4 23.8v2.4c0 1.4-1.1 2.5-2.5 2.5s-2.5-1.1-2.5-2.5v-2.4"/><path id="XMLID_15_" class="st3" d="M41.3 23.8v2.4c0 1.4-1.1 2.5-2.5 2.5s-2.5-1.1-2.5-2.5v-2.4"/><path id="XMLID_36_" class="st3" d="M46.4 23.8v2.4c0 1.4-1.1 2.5-2.5 2.5s-2.5-1.1-2.5-2.5v-2.4"/><path id="XMLID_48_" class="st3" d="M51.2 23.8v2.4c0 1.4-1.1 2.5-2.5 2.5s-2.5-1.1-2.5-2.5v-2.4"/></g><path id="XMLID_49_" class="st4" d="M13.3 29.9v20.2"/><path id="XMLID_40_" class="st4" d="M50.3 29.9v20.2"/><path id="XMLID_50_" class="st4" d="M17.1 32.2h15.7v8.5H17.1z"/><path id="XMLID_51_" class="st4" d="M37.9 32.2h8.4v14.5h-8.4z"/><path id="XMLID_53_" class="st4" d="M10.6 53.5v-3.3s0-.1.1-.1h42.7s.1 0 .1.1v3.3"/><path id="XMLID_54_" class="st4" d="M39.9 39.5h1.7"/><path id="XMLID_52_" class="st4" d="M53.3 22.1h-43c-.1 0-.1-.1-.1-.1v-4.3c0-.1.1-.1.1-.1h43c.1 0 .1.1.1.1V22c.1 0 0 .1-.1.1z"/><path id="XMLID_56_" class="st4" d="M14.4 15.9V14l-2-1.7v-1.8h38.8v1.8l-2 1.7v1.9"/><path id="XMLID_57_" class="st4" d="M16.3 13.6h14.5"/><path id="XMLID_65_" class="st4" d="M8.2 53.5h47.6"/></g><g id="XMLID_108_" class="st0"><g id="XMLID_117_" class="st2"><path id="XMLID_125_" class="st3" d="M20.4 22v2.8c0 1.6-1.3 2.9-2.9 2.9-1.6 0-2.9-1.3-2.9-2.9V22"/><path id="XMLID_124_" class="st3" d="M26.2 22v2.8c0 1.6-1.3 2.9-2.9 2.9-1.6 0-2.9-1.3-2.9-2.9V22"/><path id="XMLID_123_" class="st3" d="M31.9 22v2.8c0 1.6-1.3 2.9-2.9 2.9-1.6 0-2.9-1.3-2.9-2.9V22"/><path id="XMLID_122_" class="st3" d="M37.7 22v2.8c0 1.6-1.3 2.9-2.9 2.9-1.6 0-2.9-1.3-2.9-2.9V22"/><path id="XMLID_121_" class="st3" d="M43.4 22v2.8c0 1.6-1.3 2.9-2.9 2.9-1.6 0-2.9-1.3-2.9-2.9V22"/><path id="XMLID_120_" class="st3" d="M49.3 22v2.8c0 1.6-1.3 2.9-2.9 2.9-1.6 0-2.9-1.3-2.9-2.9V22"/></g><path id="XMLID_78_" class="st4" d="M45.2 29.2V52c0 1.2-1 2.2-2.2 2.2H21c-1.2 0-2.2-1-2.2-2.2V29.2"/><path id="XMLID_72_" class="st4" d="M18.8 18.6V12c0-1.2 1-2.2 2.2-2.2h22c1.2 0 2.2 1 2.2 2.2v6.5"/><path id="XMLID_77_" class="st4" d="M18.8 16.5h26.4"/><path id="XMLID_75_" class="st4" d="M27.8 13.3h8.4"/><path id="XMLID_74_" class="st4" d="M18.8 47.5h26.4"/><g id="XMLID_67_" class="st2"><path id="XMLID_70_" class="st3" d="M35.4 32.3H31c-1.2 0-2.1 1-2.1 2.1 0 1.2 1 2.1 2.1 2.1h2.1c1.2 0 2.1 1 2.1 2.1 0 1.2-1 2.1-2.1 2.1h-4.5"/><path id="XMLID_69_" class="st3" d="M32.2 30.1v2.2"/><path id="XMLID_68_" class="st3" d="M32.2 40.9v2"/></g><path id="XMLID_84_" class="st4" d="M13.2 20.2h37.6"/></g><g id="XMLID_96_" class="st0"><g id="XMLID_111_" class="st2"><g id="XMLID_113_"><path id="XMLID_118_" class="st3" d="M27 19h-3.4c-.9 0-1.7.7-1.7 1.7 0 .9.7 1.7 1.7 1.7h1.6c.9 0 1.7.7 1.7 1.7 0 .9-.7 1.7-1.7 1.7h-3.5"/><path id="XMLID_116_" class="st3" d="M24.6 17.2V19"/><path id="XMLID_114_" class="st3" d="M24.6 25.6v1.6"/></g><circle id="XMLID_112_" class="st3" cx="24.4" cy="22.2" r="8.3"/></g><path id="XMLID_93_" class="st4" d="M45.8 53.2c-2.9 0-5.3-2.4-5.3-5.3v-4.3c0-2.9 2.4-5.3 5.3-5.3s5.3 2.4 5.3 5.3V48c-.1 2.9-2.4 5.2-5.3 5.2z"/><path id="XMLID_99_" class="st4" d="M39.7 44.6H51"/><path id="XMLID_102_" class="st4" d="M45.8 40.5v2.2"/><path id="XMLID_109_" class="st4" d="M45.8 38.4v-4.3c0-3.1-2.5-5.6-5.6-5.6-3.1 0-5.7 2.5-5.7 5.6v5.5c0 2.7-2.2 5-5 5-2.7 0-5-2.2-5-5V33"/><path id="XMLID_133_" class="st5" d="M18.2 31.9c-3.1-2-5.2-5.6-5.2-9.6 0-6.3 5.1-11.5 11.5-11.5 6.3 0 11.5 5.1 11.5 11.5 0 4-2 7.4-5.1 9.5"/></g><g id="XMLID_142_"><path id="XMLID_137_" class="st3" d="M19.2 37.3v-9.5c0-.1.1-.1.1-.1h1.4c.1 0 .1 0 .1.1l2.7 8.5c0 .1.1.1.1.1H25c.1 0 .1-.1.1-.1v-9.6"/><path id="XMLID_136_" class="st3" d="M34.4 36.3H30c-.1 0-.2-.1-.2-.2v-8.3c0-.1.1-.2.2-.2h4.4"/><path id="XMLID_139_" class="st3" d="M29.6 32h3.5"/><path id="XMLID_141_" class="st3" d="M45.7 27.2v8.9c0 .1-.1.2-.2.2h-1.3c-.1-.1-.3-.2-.4-.3l-1.5-4.1c0-.1-.1-.1-.2-.1h-1c-.1 0-.2.1-.2.1l-1.5 4.2c-.1.2-.2.3-.4.3h-1.3c-.1 0-.2-.1-.2-.2v-8.9"/><circle id="XMLID_135_" class="st3" cx="32" cy="32" r="18.4"/><path id="XMLID_144_" class="st3" d="M20.6 24.5c2.4-3.7 6.6-6.1 11.4-6.1 1.9 0 3.7.4 5.3 1.1"/><path id="XMLID_140_" class="st3" d="M43.7 39.1c-2.4 4-6.7 6.6-11.7 6.6-1.2 0-2.3-.1-3.4-.4"/><circle id="XMLID_138_" class="st6" cx="32" cy="32" r="22.8"/></g><g id="XMLID_163_" class="st0"><g id="XMLID_145_" class="st2"><path id="XMLID_151_" class="st3" d="M15.1 50.1c-1.6 0-2.9-1.3-2.9-2.9V22.8h3.4"/><path id="XMLID_148_" class="st3" d="M21.2 50.1H15c1.9 0 3-1.6 3-3v-34c0-1.5 1.2-2.8 2.8-2.8h1.8"/><path id="XMLID_147_" class="st3" d="M51.8 53.6V12.1c0-1-.8-1.8-1.8-1.8H20.4c1.9 0 3 1.6 3 3l-.1 40.3h28.5z"/></g><path id="XMLID_152_" class="st4" d="M42.4 16.4c0-1.5-1.2-2.7-2.7-2.7-.8 0-1.4.3-1.9.8-.5-.5-1.2-.8-1.9-.8-1.5 0-2.7 1.2-2.7 2.7 0 .7.3 1.4.8 1.9l3.9 3.9 4-4c0-.1.2-.2.2-.2.1-.5.3-1 .3-1.6z"/><path id="XMLID_153_" class="st4" d="M33.1 29h16"/><path id="XMLID_146_" class="st4" d="M33.1 34.7h16"/><path id="XMLID_154_" class="st4" d="M33.1 40.5h16"/><path id="XMLID_155_" class="st4" d="M33.1 46.2h16"/><path id="XMLID_162_" class="st4" d="M31.1 29h-3.8"/><path id="XMLID_160_" class="st4" d="M31.1 34.7h-3.8"/><path id="XMLID_158_" class="st4" d="M31.1 40.5h-3.8"/><path id="XMLID_156_" class="st4" d="M31.1 46.2h-3.8"/></g><g id="XMLID_180_" class="st0"><g id="XMLID_165_" class="st2"><path id="XMLID_178_" class="st3" d="M22.6 46.3V42"/><path id="XMLID_177_" class="st3" d="M20.6 39.8l-4.7-.2"/><path id="XMLID_175_" class="st3" d="M23.5 23.8c-1.7 0-3.1 1.4-3.1 3.1v12c0 1.7 1.4 3.1 3.1 3.1V23.8z"/><circle id="XMLID_174_" class="st3" cx="12.7" cy="41.1" r="3.4"/><circle id="XMLID_173_" class="st3" cx="21" cy="49.4" r="3.4"/><path id="XMLID_166_" class="st3" d="M23.6 39h15.1c0 1.7-1.4 3.1-3.1 3.1h-12"/></g><path id="XMLID_168_" class="st4" d="M48.7 15.6v18.7s0 .1-.1.1H26.8s-.1 0-.1-.1V15.6"/><path id="XMLID_169_" class="st4" d="M21 11.2l3.4 2c.2.1.4.1.6 0l3.1-1.8c.2-.1.4-.1.6 0l3.1 1.8c.2.1.4.1.6 0l3.1-1.8c.2-.1.4-.1.6 0l3.1 1.8c.2.1.4.1.6 0l3.1-1.8c.2-.1.4-.1.6 0l3.1 1.8c.2.1.4.1.6 0l3.1-1.8c.2-.1.4-.1.6 0l3.4 2"/><g id="XMLID_171_" class="st2"><circle id="XMLID_167_" class="st3" cx="41.3" cy="28.7" r="1.6"/><circle id="XMLID_170_" class="st3" cx="34" cy="21.4" r="1.6"/><path id="XMLID_172_" class="st3" d="M33.8 28.9l8.6-8.6"/></g></g><g id="XMLID_187_" class="st0"><path id="XMLID_184_" class="st4" d="M27 29.8v-10c0-.1.1-.1.1-.1h26.5c.1 0 .1.1.1.1v33.3c0 .1-.1.1-.1.1h-7.4"/><path id="XMLID_183_" class="st4" d="M43.6 53.2H11c-.1 0-.2-.1-.2-.2l1-4.4V32.4c0-.2.1-.3.3-.3h30.5c.2 0 .3.1.3.3v16.2l1 4.4c-.1.1-.2.2-.3.2z"/><path id="XMLID_185_" class="st4" d="M11.8 48.1H27"/><path id="XMLID_182_" class="st4" d="M30.8 48.1H29"/><path id="XMLID_188_" class="st4" d="M32.6 26.2v-7.5c0-4.3 3.5-7.9 7.9-7.9 4.3 0 7.9 3.5 7.9 7.9v7.5"/><path id="XMLID_189_" class="st4" d="M35.5 34.2v2.2c0 4.3-3.5 7.9-7.9 7.9-4.3 0-7.9-3.5-7.9-7.9v-2.2"/><path id="XMLID_190_" class="st4" d="M13.7 16l3.3 3.3 7.6-7.6"/><path id="XMLID_191_" class="st4" d="M23 17.6c0 3.6-2.9 6.4-6.4 6.4-3.6 0-6.4-2.9-6.4-6.4 0-3.6 2.9-6.4 6.4-6.4 1.2 0 2.3.3 3.3.9"/></g><g id="XMLID_237_" class="st0"><g id="XMLID_194_" class="st2"><g id="XMLID_229_"><path id="XMLID_233_" class="st3" d="M37.1 39.9h-3.3c-.9 0-1.6.7-1.6 1.6 0 .9.7 1.6 1.6 1.6h1.6c.9 0 1.6.7 1.6 1.6 0 .9-.7 1.6-1.6 1.6H32"/><path id="XMLID_232_" class="st3" d="M34.7 38.2v1.7"/><path id="XMLID_231_" class="st3" d="M34.7 46.4V48"/></g><path id="XMLID_228_" class="st3" d="M51.3 52.9H17.8c-1.1 0-2-.9-2-2V35.2c0-1.1.9-2 2-2h33.5c1.1 0 2 .9 2 2V51c0 1.1-.9 1.9-2 1.9z"/><path id="XMLID_226_" class="st3" d="M21.7 33.2c0 3.2-2.6 5.8-5.8 5.8"/><path id="XMLID_225_" class="st3" d="M47.4 33.2c0 3.2 2.6 5.8 5.8 5.8"/><path id="XMLID_224_" class="st3" d="M21.7 52.9c0-3.2-2.6-5.8-5.8-5.8"/><path id="XMLID_223_" class="st3" d="M47.4 52.9c0-3.2 2.6-5.8 5.8-5.8"/><circle id="XMLID_222_" class="st3" cx="34.6" cy="43.1" r="6.8"/><path id="XMLID_221_" class="st3" d="M23.4 43.1h2.3"/><path id="XMLID_220_" class="st3" d="M43.2 43.1h2.2"/></g><path id="XMLID_208_" class="st4" d="M34.7 31.6V11.3c0-.1-.1-.2-.2-.2H10.9c-.1 0-.2.1-.2.2v41.4c0 .2.1.3.3.3h3.4"/><path id="XMLID_235_" class="st4" d="M28.9 15.6v4.2"/><path id="XMLID_234_" class="st4" d="M28.9 21.9v4.2"/><path id="XMLID_236_" class="st4" d="M28.9 28.1v2.7"/><path id="XMLID_205_" class="st4" d="M21.2 25h-5.1c-.1 0-.2-.1-.2-.2v-7.9c0-.1.1-.2.2-.2h5.1c.1 0 .2.1.2.2v7.9c0 .1-.1.2-.2.2z"/><path id="XMLID_219_" class="st5" d="M36.9 17.3c8 0 14.6 6.5 14.6 14.6"/></g><g id="XMLID_258_" class="st0"><g id="XMLID_243_" class="st2"><path id="XMLID_252_" class="st3" d="M48.3 20.5h4.2c.6 0 1 .4 1 1v24.8c0 .6-.4 1-1 1h-41c-.6 0-1-.4-1-1V21.5c0-.6.4-1 1-1h4"/><path id="XMLID_241_" class="st3" d="M10.5 41.4h43"/><path id="XMLID_242_" class="st3" d="M21.3 46.7v7.4"/><path id="XMLID_240_" class="st3" d="M42.3 46.7v7.4"/><path id="XMLID_244_" class="st3" d="M17.5 54.1h28.7"/></g><path id="XMLID_254_" class="st4" d="M17.6 41.1V9.9h28.8v31.2"/><path id="XMLID_255_" class="st4" d="M17.7 15.7h28.7"/><path id="XMLID_256_" class="st4" d="M20 12.9h2.3"/><path id="XMLID_239_" class="st4" d="M23.1 12.9h2.3"/><path id="XMLID_257_" class="st4" d="M26.3 12.9h2.2"/><g id="XMLID_261_" class="st2"><path id="XMLID_260_" class="st3" d="M28.9 26.8l4.4 4.5"/><path id="XMLID_259_" class="st3" d="M32.3 26h-4.2v4.2"/><path id="XMLID_262_" class="st6" d="M28.1 34.4c-2.1-.2-4.1-1.3-5.4-3.3-2.3-3.4-1.4-8.1 2-10.4 3.4-2.3 8.1-1.4 10.4 2 1.1 1.6 1.4 3.4 1.2 5.2"/></g><path id="XMLID_276_" class="st4" d="M39 23h4.3"/><path id="XMLID_263_" class="st4" d="M39 27.2h4.3"/><path id="XMLID_277_" class="st4" d="M36.3 31.3h7"/><path id="XMLID_278_" class="st4" d="M31.1 35.5h12.2"/></g><g id="XMLID_286_" class="st0"><path id="XMLID_280_" class="st4" d="M52.4 30.6H11.6c-.1 0-.1-.1-.1-.1v-7.6c0-.1.1-.1.1-.1h40.9c.1 0 .1.1.1.1v7.6c0 .1-.1.1-.2.1z"/><path id="XMLID_282_" class="st4" d="M49.7 33.2v20.1c0 .1-.1.1-.1.1H14.7c-.1 0-.1-.1-.1-.1V33.2"/><path id="XMLID_283_" class="st4" d="M28.8 33v20.5"/><path id="XMLID_281_" class="st4" d="M35.2 33v20.5"/><path id="XMLID_293_" class="st4" d="M35.3 46.3l-6.6 6.6"/><path id="XMLID_291_" class="st4" d="M35 40.8l-6.5 6.6"/><path id="XMLID_295_" class="st4" d="M35.4 34.8l-6.5 6.5"/><path id="XMLID_297_" class="st4" d="M30.9 33.6l-2.1 2.2"/><path id="XMLID_298_" class="st4" d="M37.1 22.8l-7.6 7.6"/><path id="XMLID_299_" class="st4" d="M31.3 23l-4.5 4.4"/><path id="XMLID_285_" class="st4" d="M26.9 22.6v8"/><path id="XMLID_284_" class="st4" d="M37.1 22.6v8"/><path id="XMLID_287_" class="st4" d="M28.8 22.6c0-1.7 1.3-3 3-3s3 1.3 3 3"/><path id="XMLID_289_" class="st4" d="M33 19.2l4.8-8.5c.1-.2.4-.2.5-.1l5.8 5.8c.2.2.1.4-.1.5l-8.5 4.8"/><path id="XMLID_290_" class="st4" d="M31.2 19.2l-4.8-8.5c-.1-.2-.4-.2-.5-.1l-5.8 5.8c-.2.2-.1.4.1.5l8.5 4.8"/></g><g id="XMLID_307_" class="st0"><path id="XMLID_330_" class="st4" d="M26.2 23.9h-3.9"/><path id="XMLID_329_" class="st4" d="M9.3 19.4h7.2c.1 0 .2.1.2.2l6 21.4c0 .1.1.2.3.2h26.8c.1 0 .2-.1.3-.2l4.6-16.7c0-.2-.1-.3-.3-.3h-7.6"/><path id="XMLID_331_" class="st4" d="M46.2 29.6h3.3"/><path id="XMLID_306_" class="st4" d="M24.3 29.6h3.3"/><path id="XMLID_305_" class="st4" d="M26.2 35.3h21"/><circle id="XMLID_308_" class="st4" cx="28.7" cy="48.8" r="3.5"/><path id="XMLID_310_" class="st4" d="M27.6 48.8h2.3"/><circle id="XMLID_311_" class="st4" cx="43.7" cy="48.8" r="3.5"/><path id="XMLID_309_" class="st4" d="M42.6 48.8h2.3"/><g id="XMLID_312_" class="st2"><path id="XMLID_313_" class="st3" d="M32.3 23.7h8.9"/><path id="XMLID_314_" class="st3" d="M36.7 28.1v-8.9"/></g><circle id="XMLID_315_" class="st4" cx="36.7" cy="23.7" r="8.1"/><path id="XMLID_332_" class="st5" d="M25.9 20.7c.9-5.2 5.5-9.1 11-9 5.5.1 9.9 4.2 10.5 9.5"/></g><g id="XMLID_320_" class="st0"><path id="XMLID_328_" class="st4" d="M9.3 15.6h7.2c.1 0 .2.1.2.2l6 21.4c0 .1.1.2.3.2h26.8c.1 0 .2-.1.3-.2l4.6-16.7c0-.2-.1-.3-.3-.3H22.3"/><path id="XMLID_327_" class="st4" d="M24.3 25.8h25.2"/><path id="XMLID_326_" class="st4" d="M26.2 31.4h21"/><circle id="XMLID_325_" class="st4" cx="28.7" cy="44.9" r="3.5"/><path id="XMLID_324_" class="st4" d="M27.6 44.9h2.3"/><circle id="XMLID_323_" class="st4" cx="43.7" cy="44.9" r="3.5"/><path id="XMLID_322_" class="st4" d="M42.6 44.9h2.3"/></g><g id="XMLID_354_" class="st0"><g id="XMLID_339_" class="st2"><path id="XMLID_345_" class="st3" d="M39.9 17.1l2.4 2.4 5.9-5.9"/><path id="XMLID_344_" class="st6" d="M49.1 17.6c0 4.1-3.3 7.4-7.4 7.4-4.1 0-7.4-3.3-7.4-7.4 0-4.1 3.3-7.4 7.4-7.4 1.4 0 2.6.4 3.7 1"/></g><circle id="XMLID_321_" class="st4" cx="18.1" cy="50.3" r="3.4"/><circle id="XMLID_333_" class="st4" cx="45.3" cy="50.3" r="3.4"/><path id="XMLID_336_" class="st4" d="M24 50.5h11.9c.1 0 .1-.1.1-.1V26.7c0-.1-.1-.1-.1-.1H10.2c-.1 0-.1.1-.1.1v23.7c0 .1.1.1.1.1h3"/><path id="XMLID_337_" class="st4" d="M40.4 50.3H39V30.7c0-.1.1-.3.3-.3h10c.1 0 .2.1.2.1l4.4 8.7V50c0 .1-.1.2-.2.2h-3"/><path id="XMLID_334_" class="st4" d="M43.5 30.5v8.4h7.1"/><path id="XMLID_338_" class="st4" d="M42.5 42.4h2.1"/><path id="XMLID_335_" class="st4" d="M51 45.1h2.2"/><path id="XMLID_340_" class="st4" d="M23.1 46.9h12.7"/><path id="XMLID_341_" class="st4" d="M10.1 42.4h3.1v3.4h-3.1"/><path id="XMLID_356_" class="st4" d="M13.2 31.3h23"/><path id="XMLID_355_" class="st4" d="M23.1 38.9h13.1"/><path id="XMLID_348_" class="st4" d="M21.1 38.9H19"/></g><g id="XMLID_353_" class="st0"><circle id="XMLID_349_" class="st4" cx="32" cy="29.3" r="14.2"/><path id="XMLID_350_" class="st4" d="M21.8 29.3c0-5.6 4.6-10.2 10.2-10.2"/><path id="XMLID_352_" class="st5" d="M17.7 41.6c-2.8-3.3-4.6-7.6-4.6-12.3 0-10.4 8.4-18.9 18.9-18.9 10.4 0 18.9 8.4 18.9 18.9 0 4.7-1.7 9-4.6 12.3"/><path id="XMLID_351_" class="st4" d="M40.5 43.6v9.7c0 .1-.1.1-.2.1l-8.8-2.9-8.4 2.9c-.1 0-.2 0-.2-.1v-9.7"/><path id="XMLID_438_" class="st4" d="M35.2 35.3L32 33.5l-3.3 1.7c-.4.2-.9-.1-.8-.6l.7-3.6-2.6-2.6c-.3-.3-.1-.9.3-.9L30 27l1.7-3.3c.2-.4.8-.4 1 0l1.6 3.3 3.7.6c.4.1.6.6.3.9l-2.7 2.6.6 3.7c-.1.4-.6.7-1 .5z"/></g><g id="XMLID_481_" class="st0"><g id="XMLID_362_" class="st2"><circle id="XMLID_365_" class="st3" cx="46.7" cy="27.4" r="1.7"/><circle id="XMLID_364_" class="st3" cx="38.8" cy="19.4" r="1.7"/><path id="XMLID_363_" class="st3" d="M38.6 27.6l9.3-9.3"/></g><path id="XMLID_359_" class="st4" d="M53.1 52.8h-43c-.1 0-.2-.1-.2-.2L9 47.8c0-.1.1-.3.2-.3h19.4l1 1h4l1-1H54c.1 0 .2.1.2.3l-.9 4.8c-.1.1-.1.2-.2.2z"/><path id="XMLID_361_" class="st4" d="M28.1 24H11.7c-.2 0-.3.1-.3.3v20.9"/><path id="XMLID_381_" class="st4" d="M51.8 45.2v-9.8"/><path id="XMLID_388_" class="st4" d="M30.5 34.8l1.2-6.4c-.7-1.5-1.1-3.2-1.1-5 0-6.7 5.4-12.2 12.2-12.2 6.7 0 12.2 5.4 12.2 12.2 0 6.7-5.4 12.2-12.2 12.2-2.4 0-4.6-.7-6.5-1.9l-5.8 1.1z"/><g id="XMLID_360_" class="st2"><path id="XMLID_372_" class="st3" d="M37 39l-2.5-1.4"/><path id="XMLID_374_" class="st3" d="M34.2 41.8l-1.4-2.5"/><path id="XMLID_376_" class="st3" d="M30.4 42.8V40"/><path id="XMLID_377_" class="st3" d="M26.5 41.8l1.5-2.5"/><path id="XMLID_378_" class="st3" d="M23.7 39l2.5-1.4"/><path id="XMLID_382_" class="st3" d="M22.7 35.2h2.9"/><path id="XMLID_383_" class="st3" d="M23.7 31.4l2.5 1.4"/><path id="XMLID_384_" class="st3" d="M26.5 28.5l1.4 2.5"/></g></g><g id="XMLID_446_" class="st0"><path id="XMLID_368_" class="st4" d="M20.9 28.1h-8.5v25.5c0 .1.1.2.2.2h38c.1 0 .2-.1.2-.2V30.1l4-5h-8.6l-2.7 3h-7.8"/><path id="XMLID_369_" class="st4" d="M12.4 28.1l-3.2-4.7v-.1h6.1l3.5 4.8"/><path id="XMLID_370_" class="st4" d="M43.4 53.8V30.4"/><path id="XMLID_386_" class="st4" d="M48.9 30.4h-3.3"/><g id="XMLID_385_" class="st2"><path id="XMLID_390_" class="st3" d="M33.2 26.9V32h3.9c.1 0 .2.2.1.3l-8.9 8.9c-.1.1-.2.1-.2 0l-8.9-8.9c-.1-.1 0-.3.1-.3h3.9v-5.3"/><path id="XMLID_389_" class="st3" d="M40.8 10.2v8.5h3c.1 0 .2.1.1.2L37 25.8h-.2L35 24"/><path id="XMLID_387_" class="st6" d="M33.2 11.1v15.8"/><path id="XMLID_367_" class="st6" d="M28.2 20.1v15.8"/></g></g><g id="XMLID_396_" class="st0"><path id="XMLID_401_" class="st4" d="M53.6 51L51 53.6c-.1.1-.2.1-.3 0L44.2 47c-.1-.1-.1-.2 0-.3l2.6-2.6c.1-.1.2-.1.3 0l6.6 6.6c0 .1 0 .3-.1.3z"/><path id="XMLID_400_" class="st4" d="M42.7 42.7L45 45"/><circle id="XMLID_391_" class="st4" cx="31.4" cy="31.6" r="16"/><path id="XMLID_399_" class="st5" d="M31.4 52.5c-11.6 0-21.1-9.4-21.1-21.1s9.4-21.1 21.1-21.1c11.6 0 21.1 9.4 21.1 21.1"/><g id="XMLID_612_" class="st2"><circle id="XMLID_619_" class="st3" cx="31.4" cy="31.6" r="12.1"/><path id="XMLID_618_" class="st3" d="M35.7 20.3c1.8 3 2.9 6.9 2.9 11.3s-1.1 8.4-3 11.4"/><path id="XMLID_617_" class="st3" d="M27.5 20.3c-1.8 3-3 6.9-3 11.3s1.1 8.4 3 11.4"/><path id="XMLID_616_" class="st3" d="M31.4 19.5v24.2"/><path id="XMLID_615_" class="st3" d="M19.3 31.6h24.2"/><path id="XMLID_614_" class="st3" d="M21.2 25.8h20.9"/><path id="XMLID_613_" class="st3" d="M20.8 37.3h21"/></g></g><g id="XMLID_493_" class="st0"><path id="XMLID_524_" class="st4" d="M38.9 32.9c0-2.3-1.9-4.3-4.3-4.3-1.2 0-2.3.5-3 1.3-.8-.8-1.8-1.3-3-1.3-2.3 0-4.3 1.9-4.3 4.3 0 1.1.5 2.2 1.2 2.9l6.1 6 6.2-6.2c.1-.1.2-.3.2-.3.6-.6.9-1.4.9-2.4z"/><path id="XMLID_518_" class="st4" d="M14.1 51.7v-40c0-.1.1-.2.2-.2h35.5c.1 0 .2.1.2.2v33"/><path id="XMLID_517_" class="st4" d="M14.2 17.2h35.7"/><path id="XMLID_515_" class="st4" d="M16.5 14.5h2.3"/><path id="XMLID_514_" class="st4" d="M20.6 14.5h2.3"/><path id="XMLID_506_" class="st4" d="M24.8 14.5H27"/><path id="XMLID_512_" class="st4" d="M49.6 50.4l-2 2c-.1.1-.2.1-.3 0L42 47.2c-.1-.1-.1-.2 0-.3l2-2c.1-.1.2-.1.3 0l5.3 5.3c.1 0 .1.2 0 .2z"/><path id="XMLID_510_" class="st4" d="M40.8 43.7l1.8 1.8"/><circle id="XMLID_507_" class="st4" cx="31.6" cy="34.6" r="13"/></g><g id="XMLID_407_" class="st0"><path id="XMLID_394_" class="st4" d="M29.3 18.6h24.9V44h-4.8v7.1c0 .2-.2.3-.4.2L40 44H17.4V30"/><path id="XMLID_403_" class="st4" d="M22 28.1l-4.2-2.3-4.3 2.2c-.5.3-1.1-.2-1-.8l.8-4.7-3.4-3.4c-.4-.4-.2-1.1.4-1.2l4.7-.6 2.2-4.3c.3-.5 1-.5 1.3 0l2.1 4.3 4.7.7c.6.1.8.8.4 1.2l-3.5 3.3.8 4.7c.1.7-.5 1.2-1 .9z"/><path id="XMLID_404_" class="st4" d="M27.6 24.8h21.5"/><path id="XMLID_402_" class="st4" d="M27.6 30.5h21.5"/><path id="XMLID_405_" class="st4" d="M27.6 36.2h21.5"/></g><g id="XMLID_412_" class="st0"><path id="XMLID_429_" class="st4" d="M14.7 54v-9c0-.9.5-1.6 1.4-1.9l11.1-3.8V35"/><path id="XMLID_428_" class="st4" d="M49.3 54v-9c0-.9-.5-1.6-1.4-1.9l-11.1-3.8V35"/><path id="XMLID_427_" class="st4" d="M40.4 21c0-4.6-3.8-8.4-8.4-8.4-4.6 0-8.4 3.8-8.4 8.4l.8 10.1c.1 1.4.9 2.6 2.1 3.2l4.1 2.7h2.7l4.2-2.7c.9-.5 1.6-1.3 1.9-2.3.1-.3.1-.6.2-.9l.8-10.1z"/><path id="XMLID_426_" class="st4" d="M30.2 46.9l-1-3.2 2.7-2 2.7 2-1 3.2h-3.4z"/><path id="XMLID_425_" class="st4" d="M30.2 46.9l-1 7.1"/><path id="XMLID_423_" class="st4" d="M33.4 46.9l1.1 7.1"/><path id="XMLID_422_" class="st4" d="M27.1 39.4l3.1 3.5"/><path id="XMLID_418_" class="st4" d="M37.1 39.4l-3.2 3.5"/><path id="XMLID_431_" class="st4" d="M21.2 22v-1.2C21.2 14.9 26 10 31.9 10c5.9 0 10.7 4.8 10.7 10.7V22"/><path id="XMLID_432_" class="st4" d="M24.2 28.2c-2 .2-3.7-1.3-3.9-3.2-.2-2 1.3-3.7 3.2-3.9l.7 7.1z"/><path id="XMLID_435_" class="st4" d="M39.9 28.2c2 .2 3.7-1.3 3.9-3.2.2-2-1.3-3.7-3.2-3.9l-.7 7.1z"/><path id="XMLID_437_" class="st4" d="M42.7 27.2v4.6l-.8 1.3h-9.5"/></g><g id="XMLID_445_" class="st0"><g id="XMLID_442_" class="st2"><path id="XMLID_441_" class="st3" d="M15.1 53.7c0-9.3 7.6-16.9 16.9-16.9 9.3 0 16.9 7.6 16.9 16.9"/><path id="XMLID_443_" class="st3" d="M37.9 37.9C40.5 42 42 47.6 42 53.7"/><path id="XMLID_454_" class="st3" d="M26.5 37.9c-2.6 4.1-4.1 9.7-4.1 15.8"/><path id="XMLID_448_" class="st3" d="M32 36.9v17"/><path id="XMLID_444_" class="st3" d="M17.7 45.7h29.2"/></g><path id="XMLID_439_" class="st4" d="M39.7 23.6c0 5.7-7.1 12.3-7.9 13.1h-.2c-.9-.8-8-7.4-7.9-13.1 0-4.4 3.6-8 8-8s7.9 3.5 8 8z"/><circle id="XMLID_440_" class="st4" cx="31.7" cy="23.6" r="4.4"/><path id="XMLID_452_" class="st5" d="M22.2 33.1c-2.4-2.4-3.9-5.8-3.9-9.5s1.5-7.1 3.9-9.5c2.4-2.4 5.8-3.9 9.5-3.9s7.1 1.5 9.5 3.9c2.4 2.4 3.9 5.8 3.9 9.5s-1.5 7.1-3.9 9.5"/></g><g id="XMLID_464_" class="st0"><g id="XMLID_463_" class="st2"><path id="XMLID_476_" class="st3" d="M43.2 43.2l6.4 6.3"/><path id="XMLID_475_" class="st3" d="M48.2 42.6h-5.5v5.6"/></g><g id="XMLID_457_" class="st2"><path id="XMLID_456_" class="st3" d="M14.4 27H20c1.4 0 2.5 1.1 2.5 2.5S21.4 32 20 32h-3"/><path id="XMLID_451_" class="st3" d="M17 32h5.2c1.4 0 2.5 1.1 2.5 2.5S23.6 37 22.2 37h-6.1"/><path id="XMLID_458_" class="st3" d="M17.2 27v9.9"/><path id="XMLID_459_" class="st3" d="M35.7 27v6.5c0 1.9-1.6 3.5-3.5 3.5s-3.5-1.6-3.5-3.5V27"/><path id="XMLID_460_" class="st3" d="M40.3 26.7v3.7c0 .3.2.6.4.8l3 1.9"/><path id="XMLID_461_" class="st3" d="M47.5 26.7v3.7c0 .3-.2.6-.4.8L44 33"/><path id="XMLID_462_" class="st3" d="M43.9 32.7v5.1"/></g><path id="XMLID_473_" class="st5" d="M40.6 52.3C37.9 53.4 35 54 32 54s-5.9-.6-8.6-1.7c-2.6-1.1-5-2.7-7-4.7s-3.6-4.4-4.7-7C10.6 37.9 10 35 10 32s.6-5.9 1.7-8.6c1.1-2.6 2.7-5 4.7-7s4.4-3.6 7-4.7C26.1 10.6 29 10 32 10s5.9.6 8.6 1.7c2.6 1.1 5 2.7 7 4.7s3.6 4.4 4.7 7C53.4 26.1 54 29 54 32s-.6 5.9-1.7 8.6"/></g><g id="XMLID_477_" class="st0"><g id="XMLID_474_" class="st2"><path id="XMLID_504_" class="st3" d="M54.4 19.3v-2.7c0-.1-.1-.2-.2-.2H15.5c-.1 0-.2.1-.2.2v2.7"/></g><g id="XMLID_469_" class="st2"><path id="XMLID_472_" class="st3" d="M25.3 47.6h28.9c.1 0 .2-.1.2-.2V22.2c0-.1-.1-.2-.2-.2H15.5c-.1 0-.2.1-.2.2v3.4"/><path id="XMLID_491_" class="st3" d="M49.8 41.8h-4.1"/><path id="XMLID_490_" class="st3" d="M43.7 41.8h-4.1"/><path id="XMLID_489_" class="st3" d="M37.5 41.8h-2.6"/><path id="XMLID_488_" class="st3" d="M40.7 34.2v-5c0-.1.1-.2.2-.2h7.8c.1 0 .2.1.2.2v5c0 .1-.1.2-.2.2h-7.8c-.2 0-.2-.1-.2-.2z"/></g><path id="XMLID_498_" class="st4" d="M15.5 35.4l2.5 2.5 4.7-4.7"/><path id="XMLID_483_" class="st4" d="M25 43.9l-5.4 3.7h-.1l-5.4-3.7c-2.8-1.9-4.5-5.1-4.5-8.5v-7.8c0-.2.1-.3.3-.3h19.3c.2 0 .3.1.3.3v7.8c0 3.4-1.7 6.6-4.5 8.5z"/><circle id="XMLID_516_" class="st4" cx="19.5" cy="35.6" r="6.2"/></g><g id="XMLID_485_" class="st0"><path id="XMLID_480_" class="st4" d="M15.1 47.4l1.6-8.8c-.9-2.1-1.5-4.4-1.5-6.8C15.2 22.5 22.7 15 32 15s16.8 7.5 16.8 16.8S41.3 48.6 32 48.6c-3.3 0-6.3-1-8.9-2.6l-8 1.4z"/><g id="XMLID_479_" class="st2"><path id="XMLID_484_" class="st3" d="M27.5 35.3h-5c-.3 0-.5-.2-.5-.5v-1.2c0-.4.2-.7.5-.9l3.7-2.7c.3-.3.5-.7.5-1.1v-.6c0-.6-.5-1-1-1H23c-.6 0-1 .5-1 1v.4"/><path id="XMLID_482_" class="st3" d="M32.9 36v-8.7H32L28.1 32v.1h7"/><g id="XMLID_417_"><path id="XMLID_380_" class="st3" d="M38.7 29.1V36"/><path id="XMLID_379_" class="st3" d="M38.7 32.5H41c.5 0 1 .4 1 1V36"/></g></g><path id="XMLID_487_" class="st5" d="M32 10.2c6 0 11.5 2.4 15.4 6.4 3.9 3.9 6.4 9.4 6.4 15.4s-2.4 11.5-6.4 15.4c-3.9 3.9-9.4 6.4-15.4 6.4"/><path id="XMLID_486_" class="st4" d="M10.2 32c0-6 2.4-11.5 6.4-15.4 3.9-3.9 9.4-6.4 15.4-6.4"/></g><g id="XMLID_520_" class="st0"><g id="XMLID_430_" class="st2"><path id="XMLID_434_" class="st3" d="M54.2 53.1H9.8c-.1 0-.2-.1-.2-.2l-1-5c0-.1.1-.3.2-.3h20.1l1 1H34l1-1h20.1c.1 0 .3.1.2.3l-1 5c.1.1 0 .2-.1.2z"/><path id="XMLID_501_" class="st3" d="M16.3 23.2h-4.9c-.2 0-.3.1-.3.3v21.7"/><path id="XMLID_500_" class="st3" d="M52.9 45.3V23.5c0-.2-.1-.3-.3-.3h-5.2"/></g><path id="XMLID_497_" class="st4" d="M44.7 45.3V17.7l-6.8-6.8H19.5c-.1 0-.2.1-.2.2v34.2"/><path id="XMLID_496_" class="st4" d="M37.9 10.9v6.6c0 .1.1.2.2.2h6.6"/><path id="XMLID_433_" class="st4" d="M23.1 23.8h17.6v20.3H23.1z"/><path id="XMLID_503_" class="st4" d="M23.1 29h17.6"/><path id="XMLID_502_" class="st4" d="M23.2 32.7h17.6"/><path id="XMLID_511_" class="st4" d="M23.3 36.4h17.6"/><path id="XMLID_519_" class="st4" d="M23.3 40.1h17.6"/><path id="XMLID_505_" class="st4" d="M28 44.1V23.2"/><path id="XMLID_508_" class="st4" d="M22.2 19H28"/></g></g><g id="Icon_text" class="st0"><g id="XMLID_59_" class="st2"><text id="XMLID_198_" transform="translate(-161.473 -76.613)" class="st7 st8 st9">STORE</text></g><g id="XMLID_64_" class="st2"><text id="XMLID_200_" transform="translate(-86.5 -76.613)" class="st7 st8 st9">M-COMMERCE</text></g><text id="XMLID_134_" transform="translate(16.055 -76.613)" class="st2"><tspan x="0" y="0" class="st7 st8 st9">PAY PER </tspan><tspan x="5.4" y="7" class="st7 st8 st9">CLICK</tspan></text><g id="XMLID_143_" class="st2"><text id="XMLID_202_" transform="translate(114.626 -76.613)"><tspan x="0" y="0" class="st7 st8 st9">NEW</tspan><tspan x="-9.1" y="7" class="st7 st8 st9">PRODUCT</tspan></text></g><g id="XMLID_164_" class="st2"><text id="XMLID_204_" transform="translate(196.21 -76.613)" class="st7 st8 st9">WISH LIST</text></g><g id="XMLID_181_" class="st2"><text id="XMLID_207_" transform="translate(-168.993 19.611)" class="st7 st8 st9">DISCOUNT</text></g><g id="XMLID_192_" class="st2"><text id="XMLID_206_" transform="translate(-77.917 19.611)"><tspan x="0" y="0" class="st7 st8 st9">SHOPPING</tspan><tspan x="11.5" y="7" class="st7 st8 st9">BAG</tspan></text></g><g id="XMLID_238_" class="st2"><text id="XMLID_203_" transform="translate(14.49 19.611)"><tspan x="0" y="0" class="st7 st8 st9">PAYMENT</tspan><tspan x="1.8" y="7" class="st7 st8 st9">METHOD</tspan></text></g><g id="XMLID_279_" class="st2"><text id="XMLID_201_" transform="translate(109.17 19.611)"><tspan x="0" y="0" class="st7 st8 st9">ONLINE</tspan><tspan x="-5.1" y="7" class="st7 st8 st9">SHOPPING</tspan></text></g><g id="XMLID_304_" class="st2"><text id="XMLID_199_" transform="translate(198.468 19.612)" class="st7 st8 st9">GIFTBOX</text></g><g id="XMLID_317_" class="st2"><text id="XMLID_197_" transform="translate(-168.917 114.667)"><tspan x="0" y="0" class="st7 st8 st9">SHOPPING</tspan><tspan x="9.3" y="7" class="st7 st8 st9">CART</tspan></text></g><g id="XMLID_318_" class="st2"><text id="XMLID_193_" transform="translate(-72.809 114.667)"><tspan x="0" y="0" class="st7 st8 st9">ADD TO</tspan><tspan x="4.1" y="7" class="st7 st8 st9">CART</tspan></text></g><g id="XMLID_357_" class="st2"><text id="XMLID_195_" transform="translate(14.479 114.666)" class="st7 st8 st9">DELIVERY</text></g><g id="XMLID_358_" class="st2"><text id="XMLID_196_" transform="translate(101.212 114.667)" class="st7 st8 st9">BEST OFFER</text></g><g id="XMLID_366_" class="st2"><text id="XMLID_246_" transform="translate(199.929 114.666)"><tspan x="0" y="0" class="st7 st8 st9">ONLINE</tspan><tspan x="-5.1" y="7" class="st7 st8 st9">DISCOUNT</tspan></text></g><g id="XMLID_373_" class="st2"><text id="XMLID_247_" transform="translate(-171.873 210.834)" class="st7 st8 st9">PACKAGING</text></g><g id="XMLID_398_" class="st2"><text id="XMLID_248_" transform="translate(-74.236 210.834)"><tspan x="0" y="0" class="st7 st8 st9">SEARCH</tspan><tspan x="-2.9" y="7" class="st7 st8 st9">PRODUCT</tspan></text></g><g id="XMLID_408_" class="st2"><text id="XMLID_249_" transform="translate(17.755 210.834)" class="st7 st8 st9">REVIEW</text></g><g id="XMLID_413_" class="st2"><text id="XMLID_250_" transform="translate(102.24 210.834)"><tspan x="0" y="0" class="st7 st8 st9">CUSTOMER</tspan><tspan x="3.5" y="7" class="st7 st8 st9">SUPPORT</tspan></text></g><g id="XMLID_455_" class="st2"><text id="XMLID_251_" transform="translate(204.015 210.834)"><tspan x="0" y="0" class="st7 st8 st9">SHOP</tspan><tspan x="-8.9" y="7" class="st7 st8 st9">LOCATION</tspan></text></g><g id="XMLID_467_" class="st2"><text id="XMLID_253_" transform="translate(-78.885 306.5)" class="st7 st8 st9">PURCHASE</text></g><g id="XMLID_478_" class="st2"><text id="XMLID_264_" transform="translate(-164.577 306.501)"><tspan x="0" y="0" class="st7 st8 st9">SECURE</tspan><tspan x="-12" y="7" class="st7 st8 st9">TRANSACTION</tspan></text></g><g id="XMLID_492_" class="st2"><text id="XMLID_265_" transform="translate(9.152 306.5)"><tspan x="0" y="0" class="st7 st8 st9">CUSTOMERS </tspan><tspan x="7.4" y="7" class="st7 st8 st9">SERVICE</tspan></text></g><g id="XMLID_494_" class="st2"><text id="XMLID_266_" transform="translate(94.93 306.5)"><tspan x="0" y="0" class="st7 st8 st9">FIND FAVORITE</tspan><tspan x="10.1" y="7" class="st7 st8 st9">PRODUCT</tspan></text></g><g id="XMLID_523_" class="st2"><text id="XMLID_267_" transform="translate(199.6 306.5)"><tspan x="0" y="0" class="st7 st8 st9">DIGITAL</tspan><tspan x="-1" y="7" class="st7 st8 st9">INVOICE</tspan></text></g></g><g id="headline" class="st0"><circle id="XMLID_61_" cx="-133.5" cy="-208.4" r="18.3" display="inline" fill="#74e2f0"/><circle id="XMLID_60_" cx="-110.1" cy="-208.4" r="18.3" display="inline" fill="#fbda73"/><circle id="XMLID_63_" cx="-122.7" cy="-190.1" r="18.3" display="inline" fill="#f08e70"/><g id="XMLID_1_" class="st2"><text id="XMLID_268_" transform="translate(-183.755 -194.085)"><tspan x="0" y="0" fill="#231f20" font-family="Oswald-Bold" font-size="22.512">FLAT </tspan><tspan x="45.5" y="0" fill="#231f20" font-family="Oswald-Light" font-size="22.512">LINE </tspan><tspan x="83.9" y="0" fill="#231f20" font-family="Oswald-Bold" font-size="22.512">ICONS</tspan></text></g><g id="XMLID_2_" class="st2"><text id="XMLID_269_" transform="translate(81.65 -193.906)" fill="#231f20" font-family="Oswald-Light" font-size="16.174">SHOPPING &amp; E-COMMERCE</text></g></g></svg>