<svg width="28" height="28" xmlns="http://www.w3.org/2000/svg"><path stroke-width=".3"   d="M10.642 20.93a3.54 3.54 0 00-3.536 3.535A3.54 3.54 0 0010.642 28a3.54 3.54 0 003.535-3.535 3.54 3.54 0 00-3.535-3.536zm0 4.949c-.78 0-1.415-.634-1.415-1.414a1.416 1.416 0 012.828 0c0 .78-.634 1.414-1.413 1.414zm10.464-4.949a3.54 3.54 0 00-3.535 3.535A3.54 3.54 0 0021.106 28a3.54 3.54 0 003.535-3.535 3.54 3.54 0 00-3.535-3.536zm0 4.949a1.415 1.415 0 010-2.828 1.415 1.415 0 010 2.828zM27.24 6.906a1.06 1.06 0 00-.831-.4H7.839l-.965-4.873a1.06 1.06 0 00-.85-.837L1.783.018A1.06 1.06 0 101.4 2.104l3.533.648 3.113 15.732a1.06 1.06 0 001.04.854h14.848c.494 0 .922-.34 1.034-.822l2.474-10.712a1.06 1.06 0 00-.203-.898zm-4.15 10.311H9.958l-1.7-8.59h16.818l-1.984 8.59z"/></svg>