<svg width="32" height="32"  xmlns="http://www.w3.org/2000/svg"><path d="M16 0C9.797 0 4.75 5.047 4.75 11.25c0 2.096.58 4.141 1.68 5.916l8.93 14.39a.938.938 0 00.796.444h.008a.937.937 0 00.796-.456l8.703-14.53a11.237 11.237 0 001.587-5.764C27.25 5.047 22.203 0 16 0zm8.054 16.051l-7.912 13.21-8.12-13.083a9.364 9.364 0 01-1.41-4.928c0-5.17 4.219-9.387 9.388-9.387 5.17 0 9.381 4.218 9.381 9.387a9.366 9.366 0 01-1.327 4.801z" /><path d="M16 5.625a5.631 5.631 0 00-5.625 5.625A5.618 5.618 0 0016 16.875c3.181 0 5.625-2.577 5.625-5.625A5.631 5.631 0 0016 5.625zm0 9.387a3.765 3.765 0 01-3.762-3.762A3.776 3.776 0 0116 7.487a3.77 3.77 0 013.756 3.763c0 2.043-1.645 3.762-3.756 3.762z" /></svg>