<svg width="220" height="38" viewBox="0 0 220 38"  xmlns="http://www.w3.org/2000/svg">
<path class="tea" d="M59.09 5.38C58.91 6.68 58.85 8.01 58.91 9.37C58.99 10.73 59.32 12.04 59.9 13.3C60.56 14.72 61.29 15.91 62.09 16.87C62.91 17.83 63.67 18.6 64.37 19.18V6.91C64.37 6.83 64.35 6.66 64.31 6.4C64.29 6.12 64.23 5.93 64.13 5.83C64.07 5.77 64.01 5.73 63.95 5.71C63.89 5.69 63.84 5.67 63.8 5.65C63.74 5.63 63.7 5.62 63.68 5.62V5.38H68.21V5.62C68.17 5.62 68.12 5.63 68.06 5.65C68.02 5.67 67.97 5.69 67.91 5.71C67.87 5.73 67.82 5.77 67.76 5.83C67.66 5.93 67.59 6.11 67.55 6.37C67.53 6.63 67.52 6.81 67.52 6.91V26.47C67.52 26.57 67.53 26.75 67.55 27.01C67.59 27.27 67.66 27.45 67.76 27.55C67.86 27.67 67.96 27.74 68.06 27.76C68.12 27.78 68.17 27.79 68.21 27.79V28H63.68V27.79C63.7 27.79 63.74 27.78 63.8 27.76C63.92 27.72 64.03 27.65 64.13 27.55C64.23 27.45 64.29 27.27 64.31 27.01C64.35 26.75 64.37 26.57 64.37 26.47V21.97C64.01 21.77 63.55 21.48 62.99 21.1C62.43 20.7 61.83 20.19 61.19 19.57C60.57 18.93 59.94 18.17 59.3 17.29C58.66 16.39 58.06 15.34 57.5 14.14C56.8 12.68 56.36 11.2 56.18 9.7C56 8.18 55.96 6.74 56.06 5.38H59.09ZM82.3505 27.55C82.4505 27.67 82.5505 27.74 82.6505 27.76C82.7105 27.78 82.7605 27.78 82.8005 27.76V28H78.2705V27.76C78.2905 27.78 78.3305 27.78 78.3905 27.76C78.5105 27.72 78.6205 27.65 78.7205 27.55C78.8205 27.45 78.8805 27.27 78.9005 27.01C78.9405 26.75 78.9605 26.57 78.9605 26.47V25.45L74.7005 28H71.5205C70.9405 26.18 70.6205 24.5 70.5605 22.96C70.5205 21.42 70.6505 20.02 70.9505 18.76C71.2505 17.5 71.7005 16.39 72.3005 15.43C72.9005 14.47 73.5705 13.66 74.3105 13C75.0505 12.34 75.8205 11.85 76.6205 11.53C77.4405 11.19 78.2205 11.02 78.9605 11.02H82.8005V11.26C82.7605 11.26 82.7105 11.27 82.6505 11.29C82.5505 11.33 82.4505 11.4 82.3505 11.5C82.2505 11.6 82.1805 11.78 82.1405 12.04C82.1205 12.3 82.1105 12.48 82.1105 12.58V26.47C82.1105 26.57 82.1205 26.75 82.1405 27.01C82.1805 27.27 82.2505 27.45 82.3505 27.55ZM78.9605 13.3C78.6605 13.3 78.2805 13.4 77.8205 13.6C77.3605 13.78 76.8905 14.08 76.4105 14.5C75.9305 14.9 75.4705 15.43 75.0305 16.09C74.5905 16.73 74.2405 17.51 73.9805 18.43C73.7205 19.33 73.5705 20.38 73.5305 21.58C73.5105 22.78 73.6805 24.13 74.0405 25.63L78.9605 22.75V13.3ZM97.6004 27.55C97.7004 27.67 97.8004 27.74 97.9004 27.76C97.9604 27.78 98.0104 27.79 98.0504 27.79V28H93.5204V27.79C93.5404 27.79 93.5804 27.78 93.6404 27.76C93.7604 27.72 93.8704 27.65 93.9704 27.55C94.0704 27.45 94.1304 27.27 94.1504 27.01C94.1704 26.75 94.1904 26.57 94.2104 26.47V24.79L88.9904 28H85.8404V12.58C85.8404 12.48 85.8204 12.3 85.7804 12.04C85.7604 11.78 85.7004 11.6 85.6004 11.5C85.5004 11.4 85.3904 11.33 85.2704 11.29C85.2104 11.27 85.1704 11.26 85.1504 11.26V11.02H88.9904V25.21L94.2104 22.12V11.02H98.0504V11.26C98.0104 11.26 97.9604 11.27 97.9004 11.29C97.8004 11.33 97.7004 11.4 97.6004 11.5C97.5004 11.6 97.4304 11.78 97.3904 12.04C97.3704 12.3 97.3604 12.48 97.3604 12.58V26.47C97.3604 26.57 97.3704 26.75 97.3904 27.01C97.4304 27.27 97.5004 27.45 97.6004 27.55ZM88.9904 7.09H94.2104V9.34H88.9904V7.09ZM127.595 27.19C127.595 27.33 127.595 27.47 127.595 27.61C127.595 27.73 127.585 27.86 127.565 28H115.385V27.79C115.405 27.79 115.445 27.78 115.505 27.76C115.625 27.72 115.735 27.65 115.835 27.55C115.915 27.47 115.965 27.35 115.985 27.19C116.025 27.03 116.045 26.87 116.045 26.71V12.28C116.045 12.14 116.025 11.99 115.985 11.83C115.965 11.65 115.915 11.52 115.835 11.44C115.735 11.34 115.625 11.27 115.505 11.23C115.445 11.21 115.405 11.2 115.385 11.2V10.99H125.855C125.855 11.77 125.765 12.54 125.585 13.3C125.425 14.04 125.165 14.75 124.805 15.43C124.465 16.09 124.025 16.7 123.485 17.26C122.945 17.8 122.315 18.25 121.595 18.61C122.215 18.95 122.875 19.38 123.575 19.9C124.275 20.4 124.925 21.01 125.525 21.73C126.125 22.43 126.615 23.23 126.995 24.13C127.395 25.03 127.595 26.05 127.595 27.19ZM123.125 13.3H119.225V17.32C120.305 17.02 121.155 16.5 121.775 15.76C122.395 15 122.845 14.18 123.125 13.3ZM119.225 19.6V25.75H124.775C124.595 24.93 124.285 24.2 123.845 23.56C123.425 22.9 122.945 22.32 122.405 21.82C121.885 21.3 121.345 20.86 120.785 20.5C120.225 20.14 119.705 19.84 119.225 19.6ZM146.457 26.44C146.457 26.54 146.467 26.73 146.487 27.01C146.527 27.27 146.597 27.45 146.697 27.55C146.757 27.61 146.807 27.65 146.847 27.67C146.907 27.69 146.957 27.71 146.997 27.73C147.057 27.75 147.107 27.76 147.147 27.76V28H142.617V27.76C142.637 27.76 142.677 27.75 142.737 27.73C142.877 27.69 142.987 27.63 143.067 27.55C143.167 27.45 143.227 27.27 143.247 27.01C143.287 26.73 143.307 26.54 143.307 26.44V12.55C143.307 12.47 143.287 12.3 143.247 12.04C143.227 11.76 143.167 11.57 143.067 11.47C143.007 11.41 142.947 11.37 142.887 11.35C142.827 11.33 142.777 11.31 142.737 11.29C142.677 11.27 142.637 11.26 142.617 11.26V11.02H147.147V11.26C147.107 11.26 147.057 11.27 146.997 11.29C146.957 11.31 146.907 11.33 146.847 11.35C146.807 11.37 146.757 11.41 146.697 11.47C146.597 11.57 146.527 11.76 146.487 12.04C146.467 12.3 146.457 12.47 146.457 12.55V26.44ZM129.447 28V27.76C129.467 27.76 129.507 27.75 129.567 27.73C129.707 27.69 129.817 27.63 129.897 27.55C129.997 27.45 130.057 27.27 130.077 27.01C130.117 26.73 130.137 26.54 130.137 26.44V12.55C130.137 12.47 130.117 12.3 130.077 12.04C130.057 11.76 129.997 11.57 129.897 11.47C129.837 11.41 129.777 11.37 129.717 11.35C129.657 11.33 129.607 11.31 129.567 11.29C129.507 11.27 129.467 11.26 129.447 11.26V11.02H133.977V11.26C133.937 11.26 133.887 11.27 133.827 11.29C133.787 11.31 133.737 11.33 133.677 11.35C133.637 11.37 133.587 11.41 133.527 11.47C133.427 11.57 133.357 11.76 133.317 12.04C133.297 12.3 133.287 12.47 133.287 12.55V16.75C133.347 16.79 133.637 16.96 134.157 17.26C134.697 17.54 135.337 18.01 136.077 18.67C136.817 19.33 137.607 20.2 138.447 21.28C139.287 22.36 140.047 23.71 140.727 25.33C140.907 25.77 141.067 26.21 141.207 26.65C141.347 27.09 141.467 27.54 141.567 28H129.447ZM137.997 25.72C137.977 25.7 137.967 25.68 137.967 25.66C137.307 24.1 136.547 22.8 135.687 21.76C134.827 20.72 134.027 19.88 133.287 19.24V25.72H137.997ZM159.04 18.37C158.54 19.27 158.01 20.09 157.45 20.83C156.89 21.55 156.33 22.2 155.77 22.78C155.21 23.34 154.67 23.83 154.15 24.25C153.63 24.65 153.17 24.98 152.77 25.24V26.44C152.77 26.54 152.78 26.73 152.8 27.01C152.84 27.27 152.91 27.45 153.01 27.55C153.07 27.61 153.12 27.65 153.16 27.67C153.22 27.69 153.27 27.71 153.31 27.73C153.37 27.75 153.42 27.76 153.46 27.76V28H148.93V27.76C148.95 27.76 148.99 27.75 149.05 27.73C149.19 27.69 149.3 27.63 149.38 27.55C149.48 27.45 149.54 27.27 149.56 27.01C149.6 26.73 149.62 26.54 149.62 26.44V12.55C149.62 12.47 149.6 12.3 149.56 12.04C149.54 11.76 149.48 11.57 149.38 11.47C149.32 11.41 149.26 11.37 149.2 11.35C149.14 11.33 149.09 11.31 149.05 11.29C148.99 11.27 148.95 11.26 148.93 11.26V11.02H160.69C160.73 12.16 160.63 13.36 160.39 14.62C160.17 15.88 159.72 17.13 159.04 18.37ZM152.77 13.27V22.3C153.35 21.8 153.94 21.19 154.54 20.47C155.16 19.75 155.75 18.88 156.31 17.86C156.71 17.14 156.99 16.39 157.15 15.61C157.33 14.83 157.44 14.05 157.48 13.27H152.77ZM171.032 22.81C170.792 23.25 170.492 23.77 170.132 24.37C169.772 24.97 169.422 25.54 169.082 26.08C168.702 26.72 168.302 27.37 167.882 28.03H164.882C165.362 27.27 165.812 26.55 166.232 25.87C166.592 25.29 166.942 24.71 167.282 24.13C167.642 23.53 167.922 23.08 168.122 22.78C168.162 22.7 168.202 22.63 168.242 22.57C168.282 22.51 168.322 22.44 168.362 22.36H167.552H165.212C165.212 20.66 165.032 19.12 164.672 17.74C164.312 16.34 163.912 15.14 163.472 14.14C162.952 12.98 162.372 11.94 161.732 11.02H164.672C165.112 11.72 165.512 12.54 165.872 13.48C166.192 14.28 166.502 15.24 166.802 16.36C167.102 17.46 167.322 18.7 167.462 20.08H169.472C170.012 18.8 170.412 17.61 170.672 16.51C170.932 15.41 171.112 14.45 171.212 13.63C171.312 12.67 171.342 11.8 171.302 11.02H174.512C174.512 12.1 174.392 13.27 174.152 14.53C173.932 15.61 173.582 16.87 173.102 18.31C172.642 19.73 171.952 21.23 171.032 22.81ZM179.38 11.02C179.42 11.9 179.52 12.77 179.68 13.63C179.84 14.49 180.1 15.31 180.46 16.09C181.1 17.49 181.8 18.64 182.56 19.54C183.34 20.44 184.07 21.16 184.75 21.7V12.55C184.75 12.47 184.73 12.3 184.69 12.04C184.67 11.76 184.61 11.57 184.51 11.47C184.45 11.41 184.39 11.37 184.33 11.35C184.29 11.33 184.25 11.31 184.21 11.29C184.15 11.27 184.1 11.26 184.06 11.26V11.02H188.59V11.26C188.55 11.26 188.5 11.27 188.44 11.29C188.4 11.31 188.35 11.33 188.29 11.35C188.25 11.37 188.2 11.41 188.14 11.47C188.04 11.57 187.98 11.75 187.96 12.01C187.94 12.27 187.93 12.45 187.93 12.55V26.44C187.93 26.54 187.94 26.72 187.96 26.98C187.98 27.24 188.04 27.42 188.14 27.52C188.24 27.64 188.34 27.71 188.44 27.73C188.5 27.75 188.55 27.76 188.59 27.76V28H184.06V27.76C184.1 27.76 184.15 27.75 184.21 27.73C184.33 27.69 184.43 27.63 184.51 27.55C184.61 27.45 184.67 27.27 184.69 27.01C184.73 26.73 184.75 26.54 184.75 26.44V24.28C184.39 24.08 183.93 23.79 183.37 23.41C182.81 23.03 182.21 22.53 181.57 21.91C180.95 21.27 180.31 20.51 179.65 19.63C178.99 18.73 178.38 17.67 177.82 16.45C177.4 15.55 177.08 14.65 176.86 13.75C176.64 12.83 176.49 11.92 176.41 11.02H179.38ZM201.911 27.55C202.011 27.67 202.111 27.74 202.211 27.76C202.271 27.78 202.321 27.78 202.361 27.76V28H197.831V27.76C197.851 27.78 197.891 27.78 197.951 27.76C198.071 27.72 198.181 27.65 198.281 27.55C198.381 27.45 198.441 27.27 198.461 27.01C198.501 26.75 198.521 26.57 198.521 26.47V25.45L194.261 28H191.081C190.501 26.18 190.181 24.5 190.121 22.96C190.081 21.42 190.211 20.02 190.511 18.76C190.811 17.5 191.261 16.39 191.861 15.43C192.461 14.47 193.131 13.66 193.871 13C194.611 12.34 195.381 11.85 196.181 11.53C197.001 11.19 197.781 11.02 198.521 11.02H202.361V11.26C202.321 11.26 202.271 11.27 202.211 11.29C202.111 11.33 202.011 11.4 201.911 11.5C201.811 11.6 201.741 11.78 201.701 12.04C201.681 12.3 201.671 12.48 201.671 12.58V26.47C201.671 26.57 201.681 26.75 201.701 27.01C201.741 27.27 201.811 27.45 201.911 27.55ZM198.521 13.3C198.221 13.3 197.841 13.4 197.381 13.6C196.921 13.78 196.451 14.08 195.971 14.5C195.491 14.9 195.031 15.43 194.591 16.09C194.151 16.73 193.801 17.51 193.541 18.43C193.281 19.33 193.131 20.38 193.091 21.58C193.071 22.78 193.241 24.13 193.601 25.63L198.521 22.75V13.3ZM217.161 27.55C217.261 27.67 217.361 27.74 217.461 27.76C217.521 27.78 217.571 27.79 217.611 27.79V28H213.081V27.79C213.101 27.79 213.141 27.78 213.201 27.76C213.321 27.72 213.431 27.65 213.531 27.55C213.631 27.45 213.691 27.27 213.711 27.01C213.731 26.75 213.751 26.57 213.771 26.47V24.79L208.551 28H205.401V12.58C205.401 12.48 205.381 12.3 205.341 12.04C205.321 11.78 205.261 11.6 205.161 11.5C205.061 11.4 204.951 11.33 204.831 11.29C204.771 11.27 204.731 11.26 204.711 11.26V11.02H208.551V25.21L213.771 22.12V11.02H217.611V11.26C217.571 11.26 217.521 11.27 217.461 11.29C217.361 11.33 217.261 11.4 217.161 11.5C217.061 11.6 216.991 11.78 216.951 12.04C216.931 12.3 216.921 12.48 216.921 12.58V26.47C216.921 26.57 216.931 26.75 216.951 27.01C216.991 27.27 217.061 27.45 217.161 27.55ZM208.551 7.09H213.771V9.34H208.551V7.09Z" />
<path class="text" d="M24.0192 37.3794C22.7517 37.1985 21.6329 36.8681 20.3642 36.6881C19.2167 36.386 18.2663 35.8885 17.2033 35.5019C16.8889 35.1778 16.5212 34.91 16.1163 34.7102C14.9113 33.4131 13.4325 32.3894 12.6579 30.6598C12.1442 30.6731 11.9825 31.0377 11.3738 30.956H10.3854C9.70959 30.8089 8.98334 30.7114 8.51042 30.3635C7.84376 30.2385 7.56876 29.7244 7.02876 29.4748C6.64251 28.8398 6.13001 28.3314 5.84251 27.5977C5.73376 27.181 5.35418 27.0323 5.34918 26.5106C5.03835 26.3281 5.17835 25.694 4.95376 25.4252C5.21043 24.4594 4.99543 23.5144 5.05293 22.264C5.18835 21.2127 5.25168 20.0915 5.44793 19.1015C5.3471 18.0502 5.25334 16.9919 4.65626 16.4348C3.59042 15.1952 1.63959 14.8415 0.409176 13.7681C0.103314 13.2641 -0.035108 12.6761 0.0137569 12.0885C0.68959 11.5469 2.19793 11.8356 3.17501 11.5944C4.31001 11.5444 5.13543 11.1844 6.23751 11.101C6.83412 11.1238 7.42831 11.1897 8.01543 11.2981C8.60327 11.6886 9.10717 12.1927 9.49751 12.7806C9.81883 13.7733 10.0178 14.8014 10.09 15.8423C10.24 16.3177 10.3213 16.8623 10.4859 17.3244C10.8021 17.6002 10.8729 18.1219 11.375 18.2131C11.5675 17.9123 11.5833 17.4356 11.77 17.1273C11.8441 16.7777 11.9777 16.4434 12.165 16.139C12.365 15.4173 12.8146 14.9444 13.0546 14.264C13.5396 13.8273 13.7213 13.0869 14.24 12.6831C14.515 12.0369 15.06 11.6602 15.425 11.1027C15.7938 11.0431 15.8275 10.6485 16.2167 10.609C16.3283 10.2931 16.8188 10.3552 17.0083 10.1148C16.9896 9.5027 17.2838 9.2052 17.4038 8.73187C17.9354 8.07591 18.5684 7.50906 19.2788 7.0527C19.8658 6.48728 20.7788 6.24854 21.4521 5.76895C22.2054 5.69812 22.5963 5.26603 23.4279 5.27437C23.6283 4.86812 22.9529 4.59437 22.8346 4.1877C22.6096 3.78728 22.2713 3.5002 22.3413 2.8052C22.4579 1.96687 23.0242 1.57812 23.7242 1.32353C24.2133 0.890202 25.0763 0.83187 25.7988 0.63187C27.1575 0.55812 28.1229 0.876868 28.5642 1.71812C28.7238 3.35978 27.6892 3.80645 27.3792 4.97895C27.5838 5.20145 28.1133 5.10062 28.3671 5.27437C28.7988 5.27145 28.9504 5.54687 29.355 5.57145C29.5633 5.78895 30.0321 5.74978 30.1467 6.06478C30.5217 6.08687 30.6267 6.3752 30.9383 6.4602C31.3621 6.8602 31.8134 7.22937 32.2225 7.6452C32.6317 8.06103 32.9825 8.53145 33.4079 8.92979C33.5113 9.32062 33.8146 9.51312 33.8033 10.0156C34.3413 10.5323 34.9525 10.974 35.4825 11.4981C36.5508 11.4502 37.2046 11.8173 38.1492 11.8927C39.0463 11.6735 39.5421 10.9539 40.52 10.7081C41.2904 10.2914 42.3738 10.1902 43.3846 10.016H44.865C46.2815 10.1328 47.6272 10.685 48.7175 11.5969C48.985 12.0223 49.3163 12.3819 49.6067 12.7831C49.7967 13.3944 49.9291 14.0222 50.0021 14.6581C49.9363 15.2952 49.8038 15.9237 49.6067 16.5331C49.2679 16.9435 49.1013 17.4115 48.815 17.8181C48.5065 18.1987 48.1765 18.5614 47.8267 18.9044C47.7271 19.0173 47.7017 19.2065 47.6292 19.2994C47.5567 19.3923 47.4133 19.4177 47.3329 19.4969C47.1704 19.6581 47.0079 19.8394 46.8392 19.991C46.3908 20.3923 45.9642 20.794 45.4558 21.1765C44.9063 21.5931 44.1804 22.2252 43.5808 22.7569C43.0454 23.2298 42.5392 23.7044 42 24.239C41.8333 24.4027 41.7413 24.6394 41.5058 24.7331C41.2375 25.3869 40.8346 25.9052 40.6167 26.6081C40.3161 27.1841 39.9865 27.7446 39.6292 28.2873C39.4259 28.9731 38.7896 29.2264 38.4433 29.7681C38.0335 30.2484 37.5695 30.6796 37.0604 31.0531C36.4958 32.0035 35.7146 32.7373 35.0846 33.6219C34.2867 34.323 33.4271 34.9505 32.5163 35.4969C31.5554 36.0807 30.527 36.5454 29.4538 36.8806C28.3838 37.0285 27.31 37.1723 26.2925 37.3739L24.0192 37.3794ZM26.1925 35.1077H27.8717C27.9346 34.7744 27.9417 34.3873 28.1679 34.2181C28.1379 33.7598 28.3408 33.536 28.7608 33.5269C29.4504 33.6373 29.3929 34.4435 29.1558 35.0085C29.9154 34.9444 30.2708 34.4764 30.9346 34.3173C31.3879 33.9473 32.0404 33.7756 32.4163 33.329C33.4579 32.7269 34.1663 31.7873 34.9846 30.9577C36.4192 29.0669 37.8179 27.1377 38.3429 24.339C38.2667 23.7365 38.4725 23.4148 38.4421 22.8581V22.5606C38.3518 22.039 38.3186 21.509 38.3429 20.9802C38.151 19.8677 37.8532 18.7761 37.4538 17.7202C37.0788 16.6785 36.4846 15.8573 36.0708 14.856C35.5246 14.3815 35.1233 13.7619 34.5892 13.2727C34.4788 12.8894 34.1071 12.7685 33.9963 12.3848C33.6275 12.226 33.5571 11.7694 33.1075 11.6927C33.0858 11.6156 33.0242 11.5781 32.9096 11.5935C32.8883 11.6706 32.8263 11.7085 32.7125 11.6927C28.3254 12.8735 22.0042 12.4685 16.8079 12.286C16.1275 12.5602 15.8046 13.1927 15.3258 13.6685C14.9767 14.3073 14.465 14.784 14.2396 15.5456C13.4896 16.7706 13.0729 18.331 12.7579 19.991V20.979C12.5946 21.0227 12.5946 21.726 12.7579 21.7706C13.0357 20.9617 13.3321 20.1716 13.6471 19.4002C13.8448 19.0491 14.0763 18.718 14.3383 18.4119C14.5858 18.1227 15.2225 18.0127 15.4246 18.4119C15.4246 18.5115 15.505 18.529 15.5238 18.6094C15.5608 19.0419 15.2417 19.1173 15.2275 19.4981C15.0238 19.6898 15.0359 20.0965 14.8321 20.2898C14.7404 20.9881 14.4013 21.439 14.3383 22.1648C13.9217 23.361 13.8171 24.8702 13.6471 26.314C13.8592 26.3994 13.8496 26.264 13.84 26.1285C13.8325 26.016 13.8246 25.9035 13.9433 25.9177C13.8854 25.5969 14.0104 25.4594 14.0421 25.2265C14.0979 24.7881 14.3621 24.5598 14.3383 24.0406C14.7133 23.5169 14.9933 22.4073 16.0175 22.856C15.83 24.1477 15.2913 25.0927 15.2258 26.5102C15.0846 27.1926 15.0183 27.8884 15.0283 28.5852C14.8029 28.7219 14.9917 29.2731 14.9296 29.5731C14.9992 30.0102 14.6767 30.2656 15.0283 30.4627C15.2783 29.6273 15.4067 28.6673 15.72 27.8939C15.8179 27.4314 16.0175 27.0715 16.115 26.6098C16.4008 26.336 16.4358 25.8115 17.0042 25.8181C17.8946 26.4802 16.9546 27.931 17.0042 28.979C16.7991 30.1552 16.6672 31.343 16.6092 32.5356C16.7829 32.6248 16.7725 32.899 17.0042 32.9315C17.0346 33.0452 17.3475 33.434 17.3008 33.0298C17.4277 32.5085 17.5266 31.9808 17.5971 31.4489C17.6405 31.2126 17.7067 30.9809 17.7946 30.7573C17.86 30.4935 17.8363 30.1402 17.9921 29.9656C18.0564 29.4563 18.1892 28.958 18.3871 28.4844C18.6254 28.0969 18.6583 27.5044 19.3754 27.5952C19.605 27.6948 19.6929 27.9352 19.6717 28.2869C19.4338 28.4119 19.7258 29.0656 19.4738 29.1756C19.4738 29.8681 19.295 30.3802 19.2763 31.0527C19.1042 31.5723 19.1096 32.2681 18.98 32.831C19.0329 33.2127 18.8038 33.3131 18.8813 33.7202C18.5667 34.046 19.0292 34.1531 19.1775 34.3131C19.7017 34.2769 19.4113 33.4269 19.6717 33.1269C19.7633 32.6555 19.8954 32.193 20.0667 31.7444C20.2629 30.7556 20.3583 29.666 21.5483 29.6702C22.2258 30.2398 21.5813 31.4569 21.5483 32.2377C21.3558 33.0989 21.1983 33.9952 21.0546 34.9044C21.1701 34.8985 21.2854 34.918 21.3925 34.9615C21.5355 35.021 21.6932 35.0355 21.8446 35.0031C22.0113 34.8077 21.9529 34.3864 22.0425 34.1144C22.2117 33.8877 22.1363 33.4177 22.3388 33.2244C22.4221 32.5523 22.5417 31.9135 23.2279 31.8423C23.411 31.7978 23.6041 31.8238 23.7689 31.9153C23.9336 32.0067 24.0579 32.1567 24.1171 32.3356C24.2004 32.9777 23.7633 33.1019 23.8204 33.719C23.6442 34.1019 23.6288 34.6456 23.4254 35.0031H24.9067C25.2242 34.2348 25.16 33.0831 26.0921 32.9289C26.6358 33.4469 26.1308 34.2469 26.1929 35.1077H26.1925ZM4.55793 12.8802C3.99126 13.071 3.13834 12.9756 2.68293 13.2752C4.13584 13.864 5.56709 14.4748 6.33751 15.7448C6.83272 16.5842 7.10524 17.5363 7.12918 18.5106C7.07168 20.5523 7.01084 22.9381 7.03084 25.3269C7.30765 26.5296 7.92487 27.6272 8.80876 28.4885C9.06126 28.4998 9.15459 28.6694 9.30293 28.7848C10.1714 29.065 11.0642 29.2633 11.9696 29.3773C11.0091 26.9974 10.6037 24.4299 10.7842 21.8698C10.9433 21.2394 10.89 20.3956 11.0804 19.7956C10.6463 19.6878 10.2415 19.4852 9.89501 19.2023C9.24625 18.4376 8.80416 17.5196 8.61085 16.5356C8.51377 15.316 8.43543 14.0773 8.01793 13.1777C7.60127 12.9694 7.52543 12.4185 6.83252 12.4852C6.70752 12.491 6.69585 12.6123 6.53627 12.5848C5.8121 12.6173 5.2321 12.7969 4.55835 12.8802H4.55793ZM40.1213 23.6485C40.4913 23.7223 40.3367 23.271 40.6146 23.2531C40.7267 23.0356 40.945 22.9252 41.01 22.6606C41.3793 22.3737 41.7112 22.0417 41.9979 21.6723C42.7521 21.1094 43.4083 20.449 44.1713 19.894C45.5688 18.6906 46.9313 17.4515 47.925 15.844C47.8988 15.4885 48.1075 15.3681 48.1225 15.0523V14.0644C48.0075 14.0485 48.0154 13.9085 48.0238 13.7685C47.8442 13.5688 47.7093 13.333 47.6283 13.0769C46.9355 12.4535 46.0784 12.0418 45.1588 11.8906C42.3113 11.6452 40.62 12.5548 38.6383 13.1756C38.5135 13.1415 38.3802 13.1572 38.2667 13.2194C38.1691 13.2724 38.0567 13.2915 37.9471 13.2735C37.8435 13.3034 37.735 13.312 37.628 13.2986C37.5211 13.2852 37.418 13.2501 37.325 13.1956C37.1217 13.1014 36.95 13.0073 36.7617 13.1756C36.9254 13.2752 36.8688 13.5944 36.9592 13.7681C37.2042 13.8194 37.3108 14.0081 37.4525 14.1627C37.717 14.5024 37.9488 14.8664 38.1446 15.2498C38.8617 14.9785 39.2696 14.3998 39.9229 14.064C40.5936 13.7214 41.2868 13.4246 41.9975 13.1756C42.1188 13.2085 42.2481 13.1936 42.3588 13.134C42.4303 13.0969 42.5095 13.0771 42.59 13.076H44.3683C44.385 13.1906 44.5242 13.1831 44.6646 13.1752C45.2176 13.4732 45.6401 13.9661 45.85 14.5581V15.7427C45.7929 15.951 45.605 16.0252 45.6529 16.336C44.4276 18.1418 42.7613 19.6047 40.8121 20.586C40.5584 20.6756 40.2883 20.709 40.0204 20.684C40.1197 21.6688 40.1531 22.6592 40.1213 23.6485ZM38.8375 16.534C39.2299 17.4224 39.528 18.3495 39.7267 19.3002C40.7146 18.8069 41.7017 18.3123 42.3933 17.5219C42.9258 17.2977 43.21 16.8244 43.5792 16.436C43.8249 16.2582 44.0185 16.0179 44.1401 15.74C44.2616 15.4621 44.3066 15.1568 44.2704 14.8556C44.0317 14.526 43.2483 14.4673 42.7888 14.6577C42.0204 14.7157 41.2761 14.9524 40.6154 15.349C40.3438 15.5715 39.9588 15.6823 39.7267 15.9415C39.6806 15.9237 39.6295 15.924 39.5836 15.9424C39.5378 15.9608 39.5006 15.9959 39.4796 16.0406C39.4584 16.0852 39.4212 16.1201 39.3754 16.1385C39.3297 16.1569 39.2786 16.1573 39.2325 16.1398C39.2017 16.3727 38.7642 16.2006 38.8375 16.534ZM24.7125 6.75479C23.8725 7.59354 23.395 8.79645 23.3296 10.4098C23.9767 10.6385 24.96 10.459 25.4042 10.4098C27.5811 10.4282 29.7575 10.3292 31.9238 10.1131C31.7571 9.52604 31.2842 9.23812 30.9363 8.82937C30.614 8.39474 30.2117 8.02575 29.7508 7.74228C28.9275 7.05062 27.7246 6.73812 26.3921 6.5577H25.0088C24.8939 6.59655 24.7912 6.66479 24.7108 6.75562L24.7125 6.75479ZM19.4767 9.02728V9.52062C19.4992 9.70687 19.3654 9.73854 19.3783 9.91604V10.5085C19.5925 10.5252 19.4225 10.1581 19.4767 10.0139C19.435 9.77603 19.6575 9.79979 19.5758 9.52062C19.5229 9.37979 19.6838 9.02645 19.4925 9.02645L19.4767 9.02728ZM21.0575 9.12562C21.1213 9.55645 20.9288 10.2427 21.1567 10.509C21.3513 10.2415 21.215 9.6452 21.2554 9.22437C21.3551 8.90547 21.3887 8.56961 21.3542 8.23729C21.4092 8.0527 21.6238 7.52895 21.4533 7.44562C21.2777 7.99481 21.1448 8.55676 21.0558 9.12645L21.0575 9.12562ZM24.2183 2.90229C24.2183 3.46187 24.6529 3.58729 24.8117 3.98937C24.9858 4.07812 24.975 4.3527 25.2071 4.38395C25.3617 4.52562 25.2842 4.89978 25.6021 4.87812C25.7696 4.41894 26.0024 3.9863 26.2933 3.59353C26.4313 3.03978 26.9025 2.81937 27.085 2.30937C26.9678 2.30381 26.8532 2.30104 26.7413 2.30104C25.8618 2.2799 24.9919 2.48736 24.2167 2.90312L24.2183 2.90229ZM23.725 26.5119C23.6367 25.4702 24.3946 25.2723 24.7129 24.6369C25.1679 24.1369 25.5463 23.5577 25.9971 23.056C26.0771 22.9727 26.2683 22.9977 26.2933 22.859H26.6888C26.7325 22.946 26.7754 23.0356 26.8858 23.056C26.9025 24.2248 26.0354 24.5098 25.7008 25.3273C25.2008 25.7115 24.8575 26.5773 24.0992 26.5773C23.9711 26.5759 23.8441 26.5541 23.7229 26.5127L23.725 26.5119ZM22.7371 23.8452C22.6908 22.8769 23.3113 22.5748 23.725 22.0665C24.0877 21.5174 24.4823 20.9901 24.9067 20.4873C24.9946 20.4435 25.0833 20.4006 25.1042 20.2902C25.5154 20.274 25.9283 20.2552 26.0921 20.4873C26.195 21.8094 25.3233 22.154 24.9067 22.9569C24.4542 23.2956 23.8958 24.0698 23.2817 24.0698C23.0784 24.0648 22.884 23.9853 22.7354 23.8465L22.7371 23.8452Z"/>
</svg>
