<svg width="24" height="24" xmlns="http://www.w3.org/2000/svg"><path fill-rule="evenodd" clip-rule="evenodd" d="M23.259 23.33a2.29 2.29 0 000-3.232l-4.702-4.716c-.334-.335-.42-.944-.196-1.36 0 0-.016.063.149-.301a9.705 9.705 0 00.859-4.007C19.369 4.348 15.034 0 9.685 0 4.335 0 0 4.348 0 9.714c0 5.366 4.335 9.715 9.684 9.715 1.42 0 2.769-.306 3.984-.858.367-.165.31-.151.31-.151.42-.226 1.023-.141 1.357.194l4.702 4.716c.89.893 2.332.893 3.222 0zM15.096 9.714c0 2.998-2.423 5.429-5.412 5.429-2.988 0-5.411-2.43-5.411-5.429 0-2.997 2.423-5.428 5.411-5.428 2.989 0 5.412 2.43 5.412 5.428z" /></svg>