<svg width="28" height="28"  xmlns="http://www.w3.org/2000/svg"><path d="M13.8 13.488c1.853 0 3.458-.665 4.769-1.976 1.31-1.311 1.976-2.915 1.976-4.768 0-1.853-.665-3.457-1.976-4.769C17.258.665 15.653 0 13.8 0c-1.854 0-3.458.665-4.769 1.976-1.31 1.31-1.976 2.915-1.976 4.768 0 1.853.665 3.457 1.976 4.768 1.312 1.31 2.916 1.976 4.768 1.976zM10.194 3.136C11.198 2.13 12.379 1.64 13.8 1.64c1.422 0 2.602.489 3.609 1.495 1.006 1.006 1.495 2.186 1.495 3.608 0 1.422-.49 2.602-1.495 3.608-1.007 1.006-2.187 1.495-3.608 1.495-1.422 0-2.602-.49-3.608-1.495-1.007-1.006-1.496-2.186-1.496-3.608 0-1.422.49-2.602 1.496-3.608zM25.6 21.53a16.651 16.651 0 00-.226-1.769 13.93 13.93 0 00-.435-1.778 8.79 8.79 0 00-.732-1.66 6.25 6.25 0 00-1.102-1.436 4.86 4.86 0 00-1.584-.996 5.474 5.474 0 00-2.022-.366c-.286 0-.563.118-1.096.465-.329.214-.713.462-1.142.736-.367.234-.864.453-1.478.651a5.868 5.868 0 01-1.807.292c-.6 0-1.208-.098-1.807-.292-.613-.198-1.11-.417-1.476-.65-.425-.272-.81-.52-1.143-.737-.533-.348-.81-.465-1.096-.465a5.45 5.45 0 00-2.022.367 4.858 4.858 0 00-1.584.995 6.255 6.255 0 00-1.102 1.437 8.802 8.802 0 00-.731 1.659 13.976 13.976 0 00-.435 1.778 16.549 16.549 0 00-.227 1.77 23.962 23.962 0 00-.056 1.654c0 1.461.465 2.645 1.38 3.517C4.584 27.563 5.78 28 7.237 28h13.482c1.456 0 2.653-.437 3.558-1.298.917-.872 1.381-2.055 1.381-3.518 0-.564-.019-1.12-.056-1.653zm-2.455 3.983c-.598.57-1.392.846-2.427.846H7.236c-1.035 0-1.83-.276-2.427-.845-.586-.558-.871-1.32-.871-2.33 0-.524.017-1.042.052-1.54a14.6 14.6 0 01.205-1.593c.1-.562.23-1.09.382-1.568a7.2 7.2 0 01.595-1.349c.237-.416.51-.774.81-1.062a3.22 3.22 0 011.055-.655c.386-.153.82-.237 1.292-.25.057.031.16.09.325.198.338.22.726.47 1.156.745.485.309 1.109.588 1.855.828.762.247 1.54.372 2.312.372.771 0 1.55-.125 2.311-.371.747-.242 1.37-.52 1.856-.83.44-.28.817-.524 1.155-.744.166-.108.268-.167.325-.197.472.012.906.096 1.293.249a3.23 3.23 0 011.053.655c.301.288.574.645.81 1.062.25.437.45.891.596 1.349.153.478.282 1.006.383 1.568.102.57.171 1.107.205 1.594.035.496.052 1.014.053 1.54 0 1.009-.286 1.77-.872 2.329z" /></svg>